<svg width="29" height="29" viewBox="0 0 29 29" fill="none" xmlns="http://www.w3.org/2000/svg">
<path fill-rule="evenodd" clip-rule="evenodd" d="M4.25254 4.24579C9.81984 -1.32151 18.8418 -1.32151 24.4048 4.24579C28.669 8.51002 29.7903 14.9994 27.2187 20.4325L23.7121 16.9259C25.1451 11.7396 22.0973 6.38873 16.9283 4.97309C11.7593 3.55745 6.39114 6.55324 4.94087 11.7223C3.4906 16.8913 6.55566 22.2594 11.7247 23.7097C13.5862 24.2205 15.543 24.1686 17.3569 23.5798L20.7986 27.0215C13.8027 30.5931 5.20496 27.8267 1.6334 20.8308C-1.18056 15.3155 -0.128576 8.63123 4.25254 4.25012V4.24579Z" fill="white" stroke="white" stroke-width="0.139778" stroke-miterlimit="10"/>
<path fill-rule="evenodd" clip-rule="evenodd" d="M16.6376 17.286L17.577 16.3466C18.1355 15.7881 19.0576 15.7881 19.6507 16.3466L26.8285 23.5243C27.3869 24.0828 27.3869 25.0049 26.8285 25.598L25.889 26.5374C25.3306 27.0959 24.4084 27.0959 23.8153 26.5374L16.6376 19.3597C16.0791 18.7666 16.0791 17.8791 16.6376 17.286Z" fill="white" stroke="white" stroke-width="0.139778" stroke-miterlimit="10"/>
</svg>
